<mxfile host="Electron" modified="2025-07-04T13:46:31.207Z" agent="Mozilla/5.0 (Windows NT 10.0; Win64; x64) AppleWebKit/537.36 (KHTML, like Gecko) draw.io/24.4.6 Chrome/124.0.6367.207 Electron/30.0.6 Safari/537.36" etag="TZPLY30KML5_LszRRUjv" version="24.4.6" type="device">
  <diagram name="Page-1" id="5f0bae14-7c28-e335-631c-24af17079c00">
    <mxGraphModel dx="1276" dy="606" grid="1" gridSize="10" guides="1" tooltips="1" connect="1" arrows="1" fold="1" page="1" pageScale="1" pageWidth="1100" pageHeight="850" background="none" math="0" shadow="0">
      <root>
        <mxCell id="0" />
        <mxCell id="1" parent="0" />
        <mxCell id="39150e848f15840c-2" value="Back-End" style="verticalAlign=top;align=left;spacingTop=8;spacingLeft=2;spacingRight=12;shape=cube;size=10;direction=south;fontStyle=4;html=1;rounded=0;shadow=0;comic=0;labelBackgroundColor=none;strokeWidth=1;fontFamily=Verdana;fontSize=12" parent="1" vertex="1">
          <mxGeometry x="180" y="52.5" width="770" height="417.5" as="geometry" />
        </mxCell>
        <mxCell id="39150e848f15840c-5" value="Controller" style="shape=component;align=left;spacingLeft=36;rounded=0;shadow=0;comic=0;labelBackgroundColor=none;strokeWidth=1;fontFamily=Verdana;fontSize=12;html=1;" parent="1" vertex="1">
          <mxGeometry x="535" y="120" width="120" height="60" as="geometry" />
        </mxCell>
        <mxCell id="39150e848f15840c-7" value="Route" style="shape=component;align=left;spacingLeft=36;rounded=0;shadow=0;comic=0;labelBackgroundColor=none;strokeWidth=1;fontFamily=Verdana;fontSize=12;html=1;" parent="1" vertex="1">
          <mxGeometry x="250" y="120" width="120" height="60" as="geometry" />
        </mxCell>
        <mxCell id="jV9LUKKD4o7k5MK8Pzt6-2" value="" style="rounded=0;orthogonalLoop=1;jettySize=auto;html=1;endArrow=halfCircle;endFill=0;endSize=6;strokeWidth=1;sketch=0;fontSize=12;curved=1;" edge="1" target="jV9LUKKD4o7k5MK8Pzt6-3" parent="1" source="39150e848f15840c-7">
          <mxGeometry relative="1" as="geometry">
            <mxPoint x="125" y="345" as="sourcePoint" />
          </mxGeometry>
        </mxCell>
        <mxCell id="jV9LUKKD4o7k5MK8Pzt6-3" value="" style="ellipse;whiteSpace=wrap;html=1;align=center;aspect=fixed;fillColor=none;strokeColor=none;resizable=0;perimeter=centerPerimeter;rotatable=0;allowArrows=0;points=[];outlineConnect=1;" vertex="1" parent="1">
          <mxGeometry x="430" y="145" width="10" height="10" as="geometry" />
        </mxCell>
        <mxCell id="jV9LUKKD4o7k5MK8Pzt6-7" value="" style="ellipse;whiteSpace=wrap;html=1;rounded=0;shadow=0;comic=0;labelBackgroundColor=none;strokeWidth=1;fontFamily=Verdana;fontSize=12;align=center;" vertex="1" parent="1">
          <mxGeometry x="435" y="140" width="20" height="20" as="geometry" />
        </mxCell>
        <mxCell id="jV9LUKKD4o7k5MK8Pzt6-10" value="" style="endArrow=none;html=1;rounded=0;exitX=1;exitY=0.5;exitDx=0;exitDy=0;entryX=0.115;entryY=0.503;entryDx=0;entryDy=0;entryPerimeter=0;" edge="1" parent="1" target="39150e848f15840c-5">
          <mxGeometry width="50" height="50" relative="1" as="geometry">
            <mxPoint x="455" y="150" as="sourcePoint" />
            <mxPoint x="532.6400000000001" y="149.39999999999998" as="targetPoint" />
          </mxGeometry>
        </mxCell>
        <mxCell id="jV9LUKKD4o7k5MK8Pzt6-11" value="Middleware" style="shape=component;align=left;spacingLeft=36;rounded=0;shadow=0;comic=0;labelBackgroundColor=none;strokeWidth=1;fontFamily=Verdana;fontSize=12;html=1;" vertex="1" parent="1">
          <mxGeometry x="240" y="280" width="120" height="60" as="geometry" />
        </mxCell>
        <mxCell id="jV9LUKKD4o7k5MK8Pzt6-13" value="" style="rounded=0;orthogonalLoop=1;jettySize=auto;html=1;endArrow=halfCircle;endFill=0;endSize=6;strokeWidth=1;sketch=0;fontSize=12;curved=1;entryX=0.5;entryY=0;entryDx=0;entryDy=0;" edge="1" parent="1" target="jV9LUKKD4o7k5MK8Pzt6-14">
          <mxGeometry relative="1" as="geometry">
            <mxPoint x="310.2857142857142" y="180" as="sourcePoint" />
            <mxPoint x="316" y="220" as="targetPoint" />
          </mxGeometry>
        </mxCell>
        <mxCell id="jV9LUKKD4o7k5MK8Pzt6-14" value="" style="ellipse;whiteSpace=wrap;html=1;rounded=0;shadow=0;comic=0;labelBackgroundColor=none;strokeWidth=1;fontFamily=Verdana;fontSize=12;align=center;" vertex="1" parent="1">
          <mxGeometry x="300" y="220" width="20" height="20" as="geometry" />
        </mxCell>
        <mxCell id="jV9LUKKD4o7k5MK8Pzt6-17" value="" style="endArrow=none;html=1;rounded=0;entryX=0.5;entryY=1;entryDx=0;entryDy=0;" edge="1" parent="1">
          <mxGeometry width="50" height="50" relative="1" as="geometry">
            <mxPoint x="310" y="280" as="sourcePoint" />
            <mxPoint x="310" y="240" as="targetPoint" />
          </mxGeometry>
        </mxCell>
        <mxCell id="jV9LUKKD4o7k5MK8Pzt6-18" value="Service" style="shape=component;align=left;spacingLeft=36;rounded=0;shadow=0;comic=0;labelBackgroundColor=none;strokeWidth=1;fontFamily=Verdana;fontSize=12;html=1;" vertex="1" parent="1">
          <mxGeometry x="768" y="125" width="120" height="60" as="geometry" />
        </mxCell>
        <mxCell id="jV9LUKKD4o7k5MK8Pzt6-19" value="Model" style="shape=component;align=left;spacingLeft=36;rounded=0;shadow=0;comic=0;labelBackgroundColor=none;strokeWidth=1;fontFamily=Verdana;fontSize=12;html=1;" vertex="1" parent="1">
          <mxGeometry x="620" y="320" width="120" height="60" as="geometry" />
        </mxCell>
        <mxCell id="jV9LUKKD4o7k5MK8Pzt6-21" value="" style="ellipse;whiteSpace=wrap;html=1;rounded=0;shadow=0;comic=0;labelBackgroundColor=none;strokeWidth=1;fontFamily=Verdana;fontSize=12;align=center;" vertex="1" parent="1">
          <mxGeometry x="670" y="250" width="20" height="20" as="geometry" />
        </mxCell>
        <mxCell id="jV9LUKKD4o7k5MK8Pzt6-22" value="" style="ellipse;whiteSpace=wrap;html=1;rounded=0;shadow=0;comic=0;labelBackgroundColor=none;strokeWidth=1;fontFamily=Verdana;fontSize=12;align=center;" vertex="1" parent="1">
          <mxGeometry x="707" y="145" width="20" height="20" as="geometry" />
        </mxCell>
        <mxCell id="jV9LUKKD4o7k5MK8Pzt6-24" value="" style="rounded=0;orthogonalLoop=1;jettySize=auto;html=1;endArrow=halfCircle;endFill=0;endSize=6;strokeWidth=1;sketch=0;fontSize=12;curved=1;" edge="1" parent="1">
          <mxGeometry relative="1" as="geometry">
            <mxPoint x="655" y="155" as="sourcePoint" />
            <mxPoint x="705" y="155" as="targetPoint" />
          </mxGeometry>
        </mxCell>
        <mxCell id="jV9LUKKD4o7k5MK8Pzt6-25" value="" style="endArrow=none;html=1;rounded=0;entryX=0.113;entryY=0.5;entryDx=0;entryDy=0;entryPerimeter=0;exitX=1;exitY=0.5;exitDx=0;exitDy=0;" edge="1" parent="1" source="jV9LUKKD4o7k5MK8Pzt6-22" target="jV9LUKKD4o7k5MK8Pzt6-18">
          <mxGeometry width="50" height="50" relative="1" as="geometry">
            <mxPoint x="730" y="158" as="sourcePoint" />
            <mxPoint x="757" y="145" as="targetPoint" />
          </mxGeometry>
        </mxCell>
        <mxCell id="jV9LUKKD4o7k5MK8Pzt6-27" value="" style="endArrow=none;html=1;rounded=0;exitX=0.5;exitY=0;exitDx=0;exitDy=0;" edge="1" parent="1" source="jV9LUKKD4o7k5MK8Pzt6-19">
          <mxGeometry width="50" height="50" relative="1" as="geometry">
            <mxPoint x="630" y="320" as="sourcePoint" />
            <mxPoint x="680" y="270" as="targetPoint" />
          </mxGeometry>
        </mxCell>
        <mxCell id="jV9LUKKD4o7k5MK8Pzt6-28" value="" style="rounded=0;orthogonalLoop=1;jettySize=auto;html=1;endArrow=halfCircle;endFill=0;endSize=6;strokeWidth=1;sketch=0;fontSize=12;curved=1;exitX=0.5;exitY=1;exitDx=0;exitDy=0;entryX=0;entryY=0.5;entryDx=0;entryDy=0;" edge="1" parent="1" source="39150e848f15840c-5" target="jV9LUKKD4o7k5MK8Pzt6-21">
          <mxGeometry relative="1" as="geometry">
            <mxPoint x="620" y="259.5" as="sourcePoint" />
            <mxPoint x="670" y="259.5" as="targetPoint" />
            <Array as="points">
              <mxPoint x="590" y="300" />
              <mxPoint x="590" y="290" />
              <mxPoint x="570" y="250" />
              <mxPoint x="610" y="260" />
            </Array>
          </mxGeometry>
        </mxCell>
        <mxCell id="jV9LUKKD4o7k5MK8Pzt6-29" value="" style="rounded=0;orthogonalLoop=1;jettySize=auto;html=1;endArrow=halfCircle;endFill=0;endSize=6;strokeWidth=1;sketch=0;fontSize=12;curved=1;exitX=0.5;exitY=1;exitDx=0;exitDy=0;entryX=1;entryY=0.5;entryDx=0;entryDy=0;" edge="1" parent="1" source="jV9LUKKD4o7k5MK8Pzt6-18" target="jV9LUKKD4o7k5MK8Pzt6-21">
          <mxGeometry relative="1" as="geometry">
            <mxPoint x="665" y="165" as="sourcePoint" />
            <mxPoint x="715" y="165" as="targetPoint" />
            <Array as="points">
              <mxPoint x="800" y="320" />
              <mxPoint x="800" y="260" />
            </Array>
          </mxGeometry>
        </mxCell>
      </root>
    </mxGraphModel>
  </diagram>
</mxfile>
